<svg width="200px" height="48px" viewBox="0 0 135 38" fill="none" xmlns="http://www.w3.org/2000/svg">
<rect x="102" y="3" width="33" height="31" rx="10" fill="#0953E1"/>
<path d="M111 18.5V14.9495C111 10.5414 114.128 8.73624 117.955 10.9403L121.042 12.7155L124.13 14.4908C127.957 16.6949 127.957 20.3051 124.13 22.5092L121.042 24.2845L117.955 26.0597C114.128 28.2638 111 26.4586 111 22.0505V18.5Z" fill="#0953E1" stroke="white" stroke-width="1.49096" stroke-miterlimit="10" stroke-linecap="round" stroke-linejoin="round"/>
<path d="M5.79766 18.4C5.36432 19.4 5.03099 20.2833 4.79766 21.05C4.56432 21.8 4.44766 22.5667 4.44766 23.35C4.44766 24.7167 4.88099 25.7333 5.74766 26.4C6.61432 27.0833 7.86432 27.425 9.49766 27.425C10.6643 27.425 11.681 27.2167 12.5477 26.8C13.431 26.4 14.0977 25.8667 14.5477 25.2C15.0143 24.55 15.2477 23.8583 15.2477 23.125C15.2477 22.175 14.7143 20.175 13.6477 17.125L16.3227 15.725C17.3727 18.5417 17.8977 21.0083 17.8977 23.125C17.8977 24.575 17.5477 25.9083 16.8477 27.125C16.1477 28.3417 15.156 29.3083 13.8727 30.025C12.606 30.7583 11.1477 31.125 9.49766 31.125C7.94766 31.125 6.58099 30.825 5.39766 30.225C4.21432 29.6417 3.28932 28.8 2.62266 27.7C1.97266 26.6 1.64766 25.3083 1.64766 23.825C1.64766 23.525 1.65599 23.2917 1.67266 23.125C1.72266 22.175 1.91432 21.1833 2.24766 20.15C2.59766 19.1167 2.98099 18.1667 3.39766 17.3L5.79766 18.4ZM10.0227 13.5C10.5393 14 11.0477 14.5083 11.5477 15.025L12.3227 15.8L10.0227 18.1L7.69766 15.8L10.0227 13.5ZM28.8367 25C27.7034 25 26.7867 24.5833 26.0867 23.75C25.3867 22.9167 24.8034 21.75 24.3367 20.25L26.5867 18.875C26.8201 19.7583 27.1034 20.3833 27.4367 20.75C27.7701 21.1 28.2367 21.275 28.8367 21.275H29.0617L29.2617 23.15L29.0617 25H28.8367ZM18.7617 29.15C19.8617 28.7 20.8701 28.175 21.7867 27.575C22.7034 26.9917 23.4201 26.4083 23.9367 25.825C24.4701 25.2417 24.7367 24.7417 24.7367 24.325C24.7367 23.6417 24.2951 21.7833 23.4117 18.75L23.2867 18.25L26.0867 17.15C26.4867 18.3 26.8034 19.5333 27.0367 20.85C27.2701 22.15 27.3867 23.3083 27.3867 24.325C27.3867 25.9583 26.7451 27.4667 25.4617 28.85C24.1784 30.25 22.4534 31.4 20.2867 32.3L18.7617 29.15ZM28.8418 21.275H29.6168C30.4835 21.275 31.1085 21.1 31.4918 20.75C31.8918 20.4 32.0918 19.8583 32.0918 19.125C32.0751 17.975 31.9751 15.95 31.7918 13.05C31.6251 10.1333 31.4751 8.175 31.3418 7.175L34.4668 6.5C34.5835 7.48333 34.7085 9.50833 34.8418 12.575C34.9918 15.625 35.0668 17.7417 35.0668 18.925C35.0668 20.0583 34.8335 21.0917 34.3668 22.025C33.9168 22.9417 33.2835 23.6667 32.4668 24.2C31.6501 24.7333 30.7251 25 29.6918 25H28.8418V21.275ZM36.8963 29.075C39.7463 28.4583 41.813 27.7167 43.0963 26.85C44.3796 25.9833 45.0213 24.8667 45.0213 23.5C45.0213 22.5167 44.8796 21.5583 44.5963 20.625C44.3296 19.675 43.9546 18.9 43.4713 18.3C43.0046 17.7 42.4796 17.4 41.8963 17.4C41.563 17.4 41.2463 17.525 40.9463 17.775C40.663 18.0083 40.438 18.3083 40.2713 18.675C40.1046 19.0417 40.0213 19.3917 40.0213 19.725C40.0213 20.0083 40.0796 20.2333 40.1963 20.4C40.463 20.7667 41.0713 21.0083 42.0213 21.125C42.988 21.225 44.313 21.275 45.9963 21.275H48.4713L48.6713 23.15L48.4713 25L45.2963 25.025C43.2796 25.025 41.663 24.8583 40.4463 24.525C39.2296 24.1917 38.3796 23.5167 37.8963 22.5C37.5963 21.85 37.4463 21.1333 37.4463 20.35C37.4463 19.3667 37.6546 18.3917 38.0713 17.425C38.488 16.4417 39.063 15.6417 39.7963 15.025C40.5296 14.3917 41.3296 14.075 42.1963 14.075C43.1963 14.075 44.1046 14.5083 44.9213 15.375C45.738 16.2417 46.3796 17.375 46.8463 18.775C47.313 20.175 47.5463 21.6333 47.5463 23.15C47.5463 25.4833 46.7046 27.45 45.0213 29.05C43.338 30.65 41.013 31.7333 38.0463 32.3L36.8963 29.075ZM61.1283 25C60.3283 25 59.57 24.7667 58.8533 24.3C58.1533 23.8333 57.4367 23.1417 56.7033 22.225C55.97 21.2917 55.095 20.0083 54.0783 18.375L55.8033 16.25C56.6867 17.6333 57.4117 18.675 57.9783 19.375C58.5617 20.075 59.0867 20.5667 59.5533 20.85C60.0367 21.1333 60.5617 21.275 61.1283 21.275H61.5533L61.7533 23.15L61.5533 25H61.1283ZM48.1533 21.275H49.0033C50.42 21.275 51.595 21.1667 52.5283 20.95C53.4617 20.7167 54.0783 20.4083 54.3783 20.025C54.245 19.225 53.7533 18.275 52.9033 17.175C52.0533 16.075 50.8033 14.8583 49.1533 13.525L49.5033 10.275L58.7783 6.375L59.7783 9.35L52.5533 12.425C53.1033 12.8917 53.7283 13.5333 54.4283 14.35C55.145 15.15 55.7783 16.0583 56.3283 17.075C56.895 18.0917 57.1783 19.075 57.1783 20.025C57.1783 20.3083 57.1367 20.6333 57.0533 21C56.72 22.35 55.8367 23.3583 54.4033 24.025C52.97 24.675 51.17 25 49.0033 25H48.1533V21.275ZM61.3125 21.275H61.4875C62.9875 21.275 64.1042 21.2 64.8375 21.05C65.5708 20.8833 66.0542 20.6417 66.2875 20.325C66.5208 20.0083 66.6375 19.55 66.6375 18.95C66.6375 18.4667 66.5542 17.675 66.3875 16.575L68.9625 16.075C69.1958 17.2917 69.3125 18.6667 69.3125 20.2C69.3792 20.4833 69.5625 20.7333 69.8625 20.95C70.1625 21.1667 70.5958 21.275 71.1625 21.275H71.3125L71.5125 23.15L71.3125 25H71.1625C70.3958 25 69.6875 24.7917 69.0375 24.375C68.3875 23.9417 67.8792 23.4 67.5125 22.75L68.1375 22.875C67.6875 23.6417 66.9542 24.1917 65.9375 24.525C64.9375 24.8417 63.4542 25 61.4875 25H61.3125V21.275ZM65.6875 31.325L63.5875 29.225L65.6875 27.1C66.1542 27.5667 66.3875 27.8 66.3875 27.8C67.3375 28.75 67.8125 29.225 67.8125 29.225L65.6875 31.325ZM61.2875 31.325L59.1875 29.225L61.2875 27.1C61.7542 27.5667 61.9875 27.8 61.9875 27.8C62.9375 28.75 63.4125 29.225 63.4125 29.225L61.2875 31.325ZM71.0787 21.275H71.4787C74.1454 21.275 76.112 21.0833 77.3787 20.7C78.662 20.3167 79.3704 19.7 79.5037 18.85L79.5287 18.6C79.5287 18.0833 79.3454 17.6083 78.9787 17.175C78.6287 16.7417 78.1954 16.475 77.6787 16.375C77.6287 16.3583 77.5454 16.35 77.4287 16.35C76.8954 16.35 76.3954 16.5667 75.9287 17C75.4787 17.4333 75.2537 17.925 75.2537 18.475C75.2537 19.0417 75.6204 19.575 76.3537 20.075C77.1037 20.575 78.0204 20.975 79.1037 21.275C80.187 21.5583 81.1954 21.7 82.1287 21.7C82.8454 21.7 83.412 21.6 83.8287 21.4C84.262 21.2 84.4787 20.9 84.4787 20.5C84.4787 18.9167 80.6787 17.0833 73.0787 15L74.4537 11.55C77.737 12.55 80.3037 13.5083 82.1537 14.425C84.0037 15.325 85.3037 16.2167 86.0537 17.1C86.8037 17.9833 87.1787 18.9417 87.1787 19.975C87.1787 20.6083 87.037 21.3917 86.7537 22.325C86.487 23.1917 85.9037 23.8417 85.0037 24.275C84.1037 24.7083 83.0287 24.925 81.7787 24.925C80.3787 24.925 78.962 24.675 77.5287 24.175C76.0954 23.6583 74.9037 22.95 73.9537 22.05C73.0204 21.1333 72.5537 20.1083 72.5537 18.975C72.5537 18.7917 72.587 18.5167 72.6537 18.15C72.8704 17.1 73.237 16.1583 73.7537 15.325C74.287 14.4917 74.912 13.8583 75.6287 13.425C76.362 12.9917 77.1204 12.8167 77.9037 12.9C78.637 12.9667 79.3037 13.2667 79.9037 13.8C80.5204 14.3333 81.0037 15.0083 81.3537 15.825C81.7037 16.6417 81.8787 17.4833 81.8787 18.35C81.8787 18.65 81.8537 18.95 81.8037 19.25C81.587 20.7 81.087 21.8417 80.3037 22.675C79.5204 23.5083 78.412 24.1083 76.9787 24.475C75.562 24.825 73.7287 25 71.4787 25H71.0787V21.275Z" fill="#585E64"/>
</svg>
